<svg id="visual" viewBox="0 0 1397 450" width="1397" height="450" xmlns="http://www.w3.org/2000/svg" xmlns:xlink="http://www.w3.org/1999/xlink" version="1.1"><path d="M0 96L127 78L254 141L381 100L508 114L635 82L762 181L889 87L1016 55L1143 114L1270 136L1397 181L1397 0L1270 0L1143 0L1016 0L889 0L762 0L635 0L508 0L381 0L254 0L127 0L0 0Z" fill="#231704"></path><path d="M0 298L127 294L254 262L381 226L508 271L635 235L762 285L889 240L1016 217L1143 208L1270 289L1397 253L1397 179L1270 134L1143 112L1016 53L889 85L762 179L635 80L508 112L381 98L254 139L127 76L0 94Z" fill="#391c05"></path><path d="M0 375L127 325L254 325L381 289L508 343L635 280L762 325L889 285L1016 280L1143 285L1270 325L1397 285L1397 251L1270 287L1143 206L1016 215L889 238L762 283L635 233L508 269L381 224L254 260L127 292L0 296Z" fill="#541b12"></path><path d="M0 402L127 406L254 402L381 366L508 411L635 375L762 375L889 325L1016 334L1143 370L1270 384L1397 375L1397 283L1270 323L1143 283L1016 278L889 283L762 323L635 278L508 341L381 287L254 323L127 323L0 373Z" fill="#701225"></path><path d="M0 451L127 451L254 451L381 451L508 451L635 451L762 451L889 451L1016 451L1143 451L1270 451L1397 451L1397 373L1270 382L1143 368L1016 332L889 323L762 373L635 373L508 409L381 364L254 400L127 404L0 400Z" fill="#880044"></path></svg>