<svg id="visual" viewBox="0 0 1397 450" width="1397" height="450" xmlns="http://www.w3.org/2000/svg" xmlns:xlink="http://www.w3.org/1999/xlink" version="1.1"><path d="M0 55L127 37L254 37L381 37L508 69L635 37L762 28L889 46L1016 51L1143 60L1270 78L1397 46L1397 0L1270 0L1143 0L1016 0L889 0L762 0L635 0L508 0L381 0L254 0L127 0L0 0Z" fill="#231704"></path><path d="M0 168L127 109L254 204L381 127L508 186L635 159L762 249L889 100L1016 208L1143 240L1270 177L1397 118L1397 44L1270 76L1143 58L1016 49L889 44L762 26L635 35L508 67L381 35L254 35L127 35L0 53Z" fill="#312e14"></path><path d="M0 312L127 312L254 276L381 298L508 321L635 289L762 361L889 258L1016 316L1143 366L1270 262L1397 262L1397 116L1270 175L1143 238L1016 206L889 98L762 247L635 157L508 184L381 125L254 202L127 107L0 166Z" fill="#384927"></path><path d="M0 375L127 370L254 357L381 370L508 370L635 334L762 397L889 348L1016 402L1143 411L1270 348L1397 339L1397 260L1270 260L1143 364L1016 314L889 256L762 359L635 287L508 319L381 296L254 274L127 310L0 310Z" fill="#326646"></path><path d="M0 451L127 451L254 451L381 451L508 451L635 451L762 451L889 451L1016 451L1143 451L1270 451L1397 451L1397 337L1270 346L1143 409L1016 400L889 346L762 395L635 332L508 368L381 368L254 355L127 368L0 373Z" fill="#038373"></path></svg>