<svg id="visual" viewBox="0 0 1397 200" width="1397" height="200" xmlns="http://www.w3.org/2000/svg" xmlns:xlink="http://www.w3.org/1999/xlink" version="1.1"><path d="M0 19L107 45L215 17L322 35L430 31L537 35L645 15L752 19L860 45L967 41L1075 41L1182 31L1290 17L1397 23L1397 0L1290 0L1182 0L1075 0L967 0L860 0L752 0L645 0L537 0L430 0L322 0L215 0L107 0L0 0Z" fill="#231709"></path><path d="M0 113L107 89L215 97L322 79L430 95L537 91L645 57L752 57L860 105L967 93L1075 91L1182 99L1290 83L1397 81L1397 21L1290 15L1182 29L1075 39L967 39L860 43L752 17L645 13L537 33L430 29L322 33L215 15L107 43L0 17Z" fill="#3e2d1c"></path><path d="M0 147L107 141L215 139L322 131L430 159L537 143L645 123L752 147L860 145L967 139L1075 145L1182 151L1290 149L1397 127L1397 79L1290 81L1182 97L1075 89L967 91L860 103L752 55L645 55L537 89L430 93L322 77L215 95L107 87L0 111Z" fill="#5c462c"></path><path d="M0 165L107 157L215 169L322 155L430 177L537 175L645 151L752 163L860 161L967 169L1075 175L1182 183L1290 177L1397 149L1397 125L1290 147L1182 149L1075 143L967 137L860 143L752 145L645 121L537 141L430 157L322 129L215 137L107 139L0 145Z" fill="#7b603d"></path><path d="M0 201L107 201L215 201L322 201L430 201L537 201L645 201L752 201L860 201L967 201L1075 201L1182 201L1290 201L1397 201L1397 147L1290 175L1182 181L1075 173L967 167L860 159L752 161L645 149L537 173L430 175L322 153L215 167L107 155L0 163Z" fill="#9a7b4f"></path></svg>