<svg id="visual" viewBox="0 0 1397 150" width="1397" height="150" xmlns="http://www.w3.org/2000/svg" xmlns:xlink="http://www.w3.org/1999/xlink" version="1.1"><rect x="0" y="0" width="1397" height="150" fill="#f2dabd"></rect><path d="M0 73L21.2 77.7C42.3 82.3 84.7 91.7 127 98.3C169.3 105 211.7 109 254 107.2C296.3 105.3 338.7 97.7 381 92.8C423.3 88 465.7 86 508 85.2C550.3 84.3 592.7 84.7 635 88.5C677.3 92.3 719.7 99.7 762 97.5C804.3 95.3 846.7 83.7 889 78.5C931.3 73.3 973.7 74.7 1016 79C1058.3 83.3 1100.7 90.7 1143 92.8C1185.3 95 1227.7 92 1270 88.8C1312.3 85.7 1354.7 82.3 1375.8 80.7L1397 79L1397 151L1375.8 151C1354.7 151 1312.3 151 1270 151C1227.7 151 1185.3 151 1143 151C1100.7 151 1058.3 151 1016 151C973.7 151 931.3 151 889 151C846.7 151 804.3 151 762 151C719.7 151 677.3 151 635 151C592.7 151 550.3 151 508 151C465.7 151 423.3 151 381 151C338.7 151 296.3 151 254 151C211.7 151 169.3 151 127 151C84.7 151 42.3 151 21.2 151L0 151Z" fill="#804" stroke-linecap="round" stroke-linejoin="miter"></path></svg>